<svg id="logo" xmlns="http://www.w3.org/2000/svg" width="512.987" height="186.2" viewBox="0 0 512.987 186.2">
  <g id="logo-2" data-name="logo" transform="translate(-182 -4507.6)" style="isolation: isolate">
    <g id="keys" style="isolation: isolate">
      <path id="Path_29" data-name="Path 29" d="M268.8,4531H287v140H268.8Z" fill="#ffd44b"/>
      <path id="Path_30" data-name="Path 30" d="M318.6,4531h18.2v140H318.6Z" fill="#ffd44b"/>
      <path id="Path_31" data-name="Path 31" d="M423.995,4531h18.2v140h-18.2Z" transform="translate(-24 1)" fill="#ffd44b"/>
      <path id="Path_32" data-name="Path 32" d="M473.793,4531h18.2v140h-18.2Z" transform="translate(-24 1)" fill="#ffd44b"/>
      <path id="Path_33" data-name="Path 33" d="M523.592,4531h18.2v140h-18.2Z" transform="translate(-24 1)" fill="#ffd44b"/>
    </g>
    <g id="markups">
      <g id="open_markup" data-name="open markup" style="isolation: isolate">
        <path id="Path_28" data-name="Path 28" d="M182,4599.4v-.2l55.6-55.6,12.4,11.8-44.4,44,44,44.4-12,11.2Z" fill="#717171"/>
      </g>
      <g id="close_markup" data-name="close markup" transform="translate(-25 0)" style="isolation: isolate">
        <path id="Path_34" data-name="Path 34" d="M625.99,4507.6h19.6l-65,186.2h-19.4Z" fill="#717171"/>
        <path id="Path_35" data-name="Path 35" d="M696.387,4599.4l-44.4-44,12.4-11.8,55.6,55.6v.2l-55.6,55.6-12-11.2Z" fill="#717171"/>
      </g>
    </g>
  </g>
</svg>
